<?xml version="1.0" encoding="UTF-8"?> <svg xmlns="http://www.w3.org/2000/svg" width="106" height="98" viewBox="0 0 106 98" fill="none"><path d="M78.8614 21.1991C80.7135 20.7788 82.3526 19.7068 83.4799 18.1787C84.6072 16.6506 85.1474 14.7682 85.002 12.8749C84.8565 10.9817 84.0352 9.20384 82.6878 7.86573C81.3403 6.52762 79.5567 5.71845 77.6622 5.58586C75.7677 5.45327 73.8886 6.00609 72.3679 7.14347C70.8471 8.28084 69.7861 9.92695 69.3783 11.7815C68.9705 13.636 69.2431 15.5753 70.1464 17.2455C71.0498 18.9157 72.5236 20.2056 74.299 20.8798L72.5653 32.7628L47.6773 29.3416L46.4454 16.7971C48.4214 16.2107 50.1201 14.9324 51.2306 13.1962C52.3411 11.4601 52.7891 9.3822 52.4928 7.3428C52.1964 5.30339 51.1754 3.43889 49.6167 2.09049C48.058 0.742101 46.0657 0 44.0045 0C41.9434 0 39.9511 0.742101 38.3924 2.09049C36.8336 3.43889 35.8127 5.30339 35.5163 7.3428C35.22 9.3822 35.668 11.4601 36.7785 13.1962C37.889 14.9324 39.5877 16.2107 41.5636 16.7971L41.0618 28.4292L32.2563 27.2204L0 37.6209L3.46744 97.8571L102.449 91.0146L103.225 78.2421L80.983 74.3419C80.6486 74.2861 80.3469 74.1083 80.1362 73.8428C79.9255 73.5774 79.8208 73.2432 79.8423 72.905L81.1426 53.4953C81.1651 53.1562 81.3131 52.8375 81.5577 52.6014C81.8022 52.3653 82.1259 52.2287 82.4657 52.2181L104.936 51.6022L105.803 37.3016L78.8842 33.6295L78.8614 21.1991ZM61.5927 71.5821C61.6247 72.5178 61.2936 73.4297 60.6686 74.1269C60.0436 74.8241 59.1731 75.2526 58.2393 75.3227L33.511 77.7631C32.892 77.8342 32.265 77.7778 31.6686 77.5974C31.0723 77.4169 30.5192 77.1163 30.0435 76.714C29.5694 76.3158 29.1814 75.8254 28.9029 75.2725C28.6245 74.7196 28.4615 74.1159 28.4239 73.498L26.9639 51.6935C26.9172 51.0618 27.0027 50.4273 27.2148 49.8304C27.4268 49.2335 27.7609 48.6873 28.1958 48.2267C28.6053 47.7845 29.0983 47.4278 29.6465 47.1773C30.1947 46.9267 30.7871 46.7873 31.3894 46.7669L58.2165 49.2986C59.1323 49.3567 59.9915 49.7619 60.6189 50.4315C61.2462 51.1011 61.5945 51.9848 61.5927 52.9023V71.5821Z" fill="#EC6736"></path></svg> 