<svg width="66" height="70" viewBox="0 0 66 70" fill="none" xmlns="http://www.w3.org/2000/svg">
<path fill-rule="evenodd" clip-rule="evenodd" d="M37.0933 1.04L59.8 12.6533C63.0933 14.3867 65.1733 17.68 65.1733 21.4933V26.8667H56.8533V21.4933C56.8533 20.9733 56.5067 20.4533 55.9867 20.1067L33.28 8.49333C32.9333 8.32 32.4133 8.32 31.8933 8.49333L9.18667 20.1067C8.66667 20.28 8.32 20.8 8.32 21.4933V26.8667H0V21.4933C0 17.8533 2.08 14.3867 5.37333 12.6533L28.08 1.04C30.8533 -0.346667 34.1467 -0.346667 37.0933 1.04ZM39.6933 34.32C39.6933 30.3333 36.4 27.2133 32.5867 27.2133C28.6 27.2133 25.48 30.3333 25.48 34.32C25.48 38.3067 28.7733 41.4267 32.5867 41.4267C36.4 41.4267 39.6933 38.3067 39.6933 34.32ZM55.8133 49.2267C56.3333 49.0533 56.68 48.5333 56.68 47.84V42.4667H65V47.84C65 51.48 62.92 54.9467 59.6267 56.68L36.92 68.2933C35.5333 68.9867 33.9733 69.3333 32.4133 69.3333C30.8533 69.3333 29.2933 68.9867 27.9067 68.2933L5.37333 56.68C2.08 54.9467 0 51.6533 0 47.84V42.4667H8.32V47.84C8.32 48.36 8.66667 48.88 9.18667 49.2267L28.4267 58.9333V49.2267C21.84 47.32 17.16 41.4267 17.16 34.32C17.16 25.8267 24.0933 18.72 32.76 18.72C41.2533 18.72 48.36 25.6533 48.36 34.32C48.36 41.4267 43.5067 47.4933 37.0933 49.2267V58.9333L55.8133 49.2267Z" fill="#245AE5" fill-opacity="0.9"/>
</svg>
