<?xml version="1.0" encoding="UTF-8" standalone="no"?><!DOCTYPE svg PUBLIC "-//W3C//DTD SVG 1.1//EN" "http://www.w3.org/Graphics/SVG/1.1/DTD/svg11.dtd"><svg width="100%" height="100%" viewBox="0 0 838 194" version="1.1" xmlns="http://www.w3.org/2000/svg" xmlns:xlink="http://www.w3.org/1999/xlink" xml:space="preserve" style="fill-rule:evenodd;clip-rule:evenodd;stroke-linejoin:round;stroke-miterlimit:1.41421;"><rect id="Artboard1" x="0" y="0" width="837.103" height="192.77" style="fill:none;"/><g fill="#0055c4"><path d="M1.246,193.143c0,-13.27 4.695,-24.537 14.084,-33.801c9.389,-9.514 20.718,-14.271 33.986,-14.271l96.144,0l0,-24.035l-120.179,0c-6.634,0 -12.331,-2.317 -17.088,-6.949c-4.632,-4.757 -6.947,-10.453 -6.947,-17.088l0,-48.07c0,-13.27 4.695,-24.537 14.084,-33.801c9.389,-9.514 20.718,-14.271 33.986,-14.271l144.214,0c0,13.394 -4.757,24.725 -14.271,33.989c-9.389,9.389 -20.655,14.083 -33.799,14.083l-84.125,0c-3.38,0 -6.259,1.188 -8.637,3.568c-2.254,2.377 -3.382,5.194 -3.382,8.449c0,3.38 1.128,6.259 3.382,8.639c2.378,2.252 5.257,3.379 8.637,3.379l108.16,0c6.51,0 12.144,2.378 16.901,7.135c4.757,4.759 7.134,10.391 7.134,16.9l0,48.072c0,13.396 -4.757,24.725 -14.272,33.989c-9.389,9.389 -20.655,14.083 -33.799,14.083l-144.214,0l0.001,0Z" style="fill-rule:nonzero;"/><path d="M258.45,193.143c-13.396,0 -24.725,-4.694 -33.989,-14.083c-9.388,-9.389 -14.083,-20.72 -14.083,-33.989l0,-144.214c13.271,0 24.537,4.757 33.801,14.271c9.514,9.389 14.271,20.656 14.271,33.801l0,96.142l96.142,0l0,-96.142c0,-13.27 4.694,-24.537 14.083,-33.801c9.389,-9.514 20.72,-14.271 33.989,-14.271l0,192.286l-144.214,0Z" style="fill-rule:nonzero;"/><path d="M553.632,72.964c3.254,0 6.071,-1.127 8.448,-3.379c2.38,-2.38 3.567,-5.259 3.567,-8.639c0,-3.255 -1.188,-6.072 -3.567,-8.449c-2.378,-2.38 -5.195,-3.568 -8.448,-3.568l-84.126,0l0,24.035l84.125,0Zm-84.125,120.179c-13.397,0 -24.726,-4.694 -33.988,-14.083c-9.389,-9.389 -14.084,-20.72 -14.084,-33.989l0,-96.142c0,-13.27 4.695,-24.537 14.084,-33.801c9.387,-9.514 20.716,-14.271 33.988,-14.271l96.142,0c13.27,0 24.537,4.757 33.798,14.271c9.514,9.389 14.271,20.656 14.271,33.801l0,48.07c0,6.635 -2.375,12.331 -7.134,17.088c-4.756,4.632 -10.389,6.949 -16.899,6.949l-120.178,0l0,24.035l96.142,0c13.27,0 24.537,4.757 33.798,14.271c9.514,9.389 14.271,20.656 14.271,33.801l-144.212,0Z" style="fill-rule:nonzero;"/><path d="M662.872,193.143l-39.433,0l65.723,-96.894l-60.089,-95.392l23.098,0c29.167,0 53.516,19.78 73.044,59.339c24.537,-39.559 46.57,-59.339 66.098,-59.339l44.88,0l-74.924,95.392l75.486,96.894l-47.132,0c-16.023,0 -37.493,-20.28 -64.408,-60.84c-27.792,40.183 -48.572,60.463 -62.343,60.84Z" style="fill-rule:nonzero;"/></g></svg>