<?xml version="1.0" encoding="UTF-8"?>
<svg xmlns="http://www.w3.org/2000/svg" xmlns:xlink="http://www.w3.org/1999/xlink" width="998pt" height="221pt" viewBox="0 0 998 221" version="1.1">
<g id="surface1">
<path style=" stroke:none;fill-rule:nonzero;fill:rgb(26,162,159);fill-opacity:1;" d="M 366.832031 99.832031 L 384.222656 78.824219 C 378.246094 72.574219 371.039062 67.628906 363.054688 64.300781 C 355.082031 60.820312 346.484375 59.003906 337.785156 58.96875 C 326.1875 58.96875 315.710938 61.539062 306.359375 66.679688 C 287.519531 76.839844 275.90625 96.644531 276.246094 118.046875 C 276.246094 129.320312 278.871094 139.492188 284.121094 148.570312 C 289.277344 157.558594 296.761719 164.984375 305.785156 170.070312 C 314.976562 175.320312 325.257812 177.945312 336.636719 177.945312 C 345.460938 177.855469 354.164062 175.867188 362.152344 172.121094 C 370.515625 168.394531 378.070312 163.070312 384.386719 156.445312 L 366.832031 137.574219 C 362.871094 141.667969 358.203125 145.003906 353.046875 147.421875 C 348.449219 149.699219 343.40625 150.929688 338.277344 151.03125 C 332.695312 151.09375 327.210938 149.585938 322.441406 146.683594 C 317.675781 143.78125 313.792969 139.640625 311.199219 134.703125 C 305.726562 124.042969 305.726562 111.398438 311.199219 100.734375 C 313.792969 95.796875 317.679688 91.65625 322.441406 88.753906 C 327.210938 85.851562 332.695312 84.347656 338.277344 84.40625 C 343.636719 84.492188 348.882812 85.933594 353.539062 88.589844 C 358.6875 91.390625 363.210938 95.21875 366.828125 99.835938 Z M 513.367188 175.8125 L 489.410156 138.234375 C 495.84375 134.964844 501.15625 129.851562 504.671875 123.546875 C 508.171875 117.257812 509.921875 109.789062 509.921875 101.148438 C 509.921875 88.347656 505.738281 78.417969 497.367188 71.359375 C 489 64.304688 477.210938 60.773438 462.003906 60.773438 L 410.3125 60.773438 L 410.3125 175.8125 L 440.34375 175.8125 L 440.34375 143.976562 L 462.660156 143.976562 L 479.398438 175.8125 Z M 440.34375 84.734375 L 462.167969 84.734375 C 468.292969 84.734375 473.027344 86.238281 476.363281 89.246094 C 479.703125 92.253906 481.371094 96.550781 481.371094 102.128906 C 481.371094 107.929688 479.699219 112.359375 476.363281 115.421875 C 473.027344 118.484375 468.296875 120.015625 462.167969 120.015625 L 440.34375 120.015625 Z M 542.25 175.8125 L 634.636719 175.8125 L 634.636719 151.855469 L 572.28125 151.855469 L 572.28125 130.191406 L 627.089844 130.027344 L 627.089844 106.234375 L 572.28125 106.234375 L 572.28125 84.734375 L 632.996094 84.734375 L 632.996094 60.773438 L 542.25 60.773438 Z M 696.5 117.226562 L 655.640625 175.8125 L 690.757812 175.8125 L 714.714844 140.203125 L 739.167969 175.8125 L 775.105469 175.8125 L 733.914062 115.746094 L 771.820312 60.769531 L 736.375 60.769531 L 714.714844 93.429688 L 693.21875 60.773438 L 658.265625 60.773438 Z M 834.011719 151.691406 L 857.484375 128.058594 C 864.589844 120.949219 870.085938 114.246094 873.972656 107.957031 C 877.855469 101.664062 879.796875 95.566406 879.796875 89.65625 C 879.871094 83.976562 878.054688 78.433594 874.632812 73.902344 C 870.929688 69.117188 865.992188 65.429688 860.351562 63.234375 C 853.804688 60.628906 846.804688 59.347656 839.761719 59.460938 C 823.785156 59.460938 807.863281 65.203125 792.003906 76.691406 L 803.488281 98.847656 C 808.382812 94.488281 813.882812 90.867188 819.820312 88.097656 C 825.449219 85.53125 830.5625 84.246094 835.160156 84.246094 C 839.320312 84.246094 842.550781 85.09375 844.847656 86.789062 C 847.148438 88.492188 848.441406 91.234375 848.292969 94.089844 C 848.292969 96.5 847.25 99.398438 845.171875 102.789062 C 842.871094 106.464844 840.175781 109.875 837.132812 112.964844 L 795.289062 155.960938 L 795.453125 175.816406 L 883.078125 175.816406 L 883.078125 151.691406 Z M 981.046875 128.222656 L 981.046875 103.769531 L 953.480469 103.769531 L 953.480469 128.222656 L 931.984375 128.222656 L 962.671875 60.773438 L 934.113281 60.773438 L 901.460938 130.6875 L 901.460938 151.039062 L 953.480469 151.039062 L 953.480469 175.8125 L 981.046875 175.8125 L 981.046875 151.035156 L 995.8125 151.035156 L 995.8125 128.222656 Z M 981.046875 128.222656 "/>
<path style=" stroke:none;fill-rule:nonzero;fill:rgb(26,162,159);fill-opacity:1;" d="M 187.042969 31.285156 L 186.839844 31.117188 C 186.8125 31.09375 186.785156 31.074219 186.757812 31.050781 C 180.382812 25.949219 172.296875 23.464844 161.742188 25.089844 C 142.835938 28 142.59375 40.117188 142.59375 40.117188 C 142.59375 40.117188 142.429688 41.007812 136.53125 46.664062 C 130.632812 52.320312 128.292969 62.175781 128.292969 62.175781 C 128.292969 62.175781 137.5 61.496094 147.199219 60.964844 C 156.894531 60.429688 161.0625 66.539062 162.710938 69.207031 C 164.359375 71.871094 162.710938 79.386719 162.710938 79.386719 C 163.367188 78.996094 164.132812 78.828125 164.890625 78.902344 C 165.8125 79.144531 164.890625 81.082031 163.4375 83.507812 C 161.984375 85.933594 161.386719 87.972656 155.921875 92.234375 C 152.980469 94.566406 150.183594 97.078125 147.546875 99.757812 C 144.777344 102.015625 142.226562 104.53125 139.925781 107.265625 C 139.925781 107.265625 149.136719 105.566406 145.746094 111.144531 C 142.351562 116.71875 120.945312 125.230469 103.570312 107.75 C 82.855469 86.910156 78.699219 65.617188 79.328125 41.816406 C 80.234375 7.738281 99.691406 0.121094 99.691406 0.121094 C 99.691406 0.121094 92.324219 -0.21875 82.238281 8.363281 C 78.082031 11.902344 62.925781 28.390625 70.296875 69.078125 C 67.238281 66.210938 64.085938 62.238281 61.394531 51.511719 C 54.058594 22.253906 63.265625 7.636719 63.265625 7.636719 C 63.265625 7.636719 41.046875 29.914062 49.519531 56.601562 C 52.828125 66.660156 57.214844 76.332031 62.609375 85.449219 C 62.609375 85.449219 44.976562 68.992188 41.035156 54.664062 C 37.234375 40.839844 38.6875 25.628906 38.6875 25.628906 C 38.6875 25.628906 14.65625 59.085938 37.882812 92.960938 C 43.597656 101.234375 50.179688 108.875 57.515625 115.746094 C 55.316406 114.65625 42.734375 110.15625 29.15625 94.902344 C 15.59375 79.660156 13.644531 56.117188 13.644531 56.117188 C 13.644531 56.117188 4.019531 86.46875 14.371094 102.65625 C 25.894531 120.671875 49.292969 134.136719 51.734375 135.507812 C 49.519531 134.277344 30.101562 123.683594 18.492188 123.503906 C 6.171875 123.316406 0.0703125 103.628906 0.0703125 103.628906 C 0.0703125 103.628906 1.820312 129.574219 15.101562 145.804688 C 28.378906 162.035156 37.941406 167.671875 48.792969 166.652344 C 59.640625 165.636719 71.113281 170.457031 71.113281 170.457031 C 71.113281 170.457031 57.175781 168.179688 47.796875 170.40625 C 39.003906 172.492188 21.082031 168.117188 18.875 167.558594 C 17.15625 166.894531 15.488281 166.191406 13.867188 165.449219 C 39.441406 208.714844 90.792969 229.527344 139.269531 216.277344 C 187.746094 203.023438 221.367188 158.976562 221.375 108.71875 C 221.371094 76.238281 208.339844 48.550781 187.042969 31.285156 Z M 187.042969 31.285156 "/>
</g>
</svg>
