<?xml version="1.0" encoding="UTF-8"?>
<!DOCTYPE svg PUBLIC "-//W3C//DTD SVG 1.1//EN" "http://www.w3.org/Graphics/SVG/1.1/DTD/svg11.dtd">
<!-- Creator: CorelDRAW -->
<svg xmlns="http://www.w3.org/2000/svg" xml:space="preserve" width="338.667mm" height="87.0964mm" style="shape-rendering:geometricPrecision; text-rendering:geometricPrecision; image-rendering:optimizeQuality; fill-rule:evenodd; clip-rule:evenodd"
viewBox="0 0 338.667 87.0964"
 xmlns:xlink="http://www.w3.org/1999/xlink">
 <defs>
  <style type="text/css">
   <![CDATA[
    .fil0 {fill:#0093DD}
    .fil1 {fill:#68B92E}
   ]]>
  </style>
 </defs>
 <g id="图层_x0020_1">
  <metadata id="CorelCorpID_0Corel-Layer"/>
  <g id="_504835984">
   <path id="_504836848" class="fil0" d="M25.131 43.5484l25.7896 25.7935 16.2772 -16.2768c2.8745,-2.8754 7.538,-2.8747 10.4125,0 2.8748,2.8748 2.8754,7.5373 0,10.4118l-21.4832 21.4833c-2.862,2.8613 -7.5769,2.8352 -10.4118,0l-30.9897 -30.9934 -0.0007 18.4254c0,4.0451 -3.3173,7.3634 -7.3634,7.3634 -4.0653,0 -7.3615,-3.2972 -7.3615,-7.3625l0 -57.6883c0,-4.0651 3.2962,-7.3624 7.3615,-7.3624 4.0661,0 7.3634,3.2982 7.3634,7.3624l0 18.4255 30.9904 -30.9941c2.8349,-2.8353 7.5498,-2.8613 10.4118,0l21.4832 21.4833c2.8754,2.8745 2.8748,7.537 0,10.4117 -2.8745,2.8745 -7.538,2.8755 -10.4125,0l-16.2772 -16.2768 -25.7896 25.794zm25.8009 -7.37c4.069,0 7.3695,3.3004 7.3695,7.3693 0,4.0699 -3.3005,7.3703 -7.3695,7.3703 -4.0698,0 -7.3703,-3.3004 -7.3703,-7.3703 0,-4.0689 3.3005,-7.3693 7.3703,-7.3693z"/>
   <g>
    <path id="_504836680" class="fil1" d="M110.735 11.4706c-2.4931,0 -4.5626,2.0703 -4.5626,4.5628l0.0016 55.027c0,2.5015 2.0605,4.5641 4.5626,4.5641 2.5021,0 4.5627,-2.0618 4.5627,-4.5641l-0.0016 -55.0272c0,-2.4991 -2.0635,-4.5626 -4.5627,-4.5626zm35.4567 1.3289c-1.7621,-1.7621 -4.6894,-1.7635 -6.4519,-0.0009l-20.4116 20.4134c-1.515,1.5152 -1.3126,3.8704 -0.6391,5.0339l20.3139 35.0978c1.2278,2.1213 4.0948,2.9309 6.2354,1.671 2.1428,-1.261 2.9237,-4.0721 1.6779,-6.2244l-18.4284 -31.8351 17.7038 -17.7041c1.7698,-1.7697 1.77,-4.6816 0,-6.4516z"/>
    <path id="_504836296" class="fil1" d="M158.647 30.0095c-2.4927,0 -4.563,2.0708 -4.563,4.5618l-0.0012 24.0701c-0.0003,9.3738 7.6099,16.9849 16.9843,16.9842l14.3062 -0.0012c2.4851,-0.0003 4.5615,-2.0744 4.5615,-4.5618l0.0002 -36.4913c0,-2.5094 -2.054,-4.5618 -4.5625,-4.5618 -2.4927,0 -4.5625,2.0695 -4.5625,4.5618l0 31.9281 -9.7427 0.0015c-4.3406,0.0005 -7.86,-3.5189 -7.8597,-7.8598l0.0014 -24.0698c0.0003,-2.4979 -2.0639,-4.5618 -4.562,-4.5618z"/>
    <path id="_504836584" class="fil1" d="M237.643 16.0337c0,-2.493 -2.0698,-4.563 -4.5623,-4.563l-17.3116 0c-9.3781,0 -16.9843,7.6069 -16.9843,16.9842l0 30.1855c0,9.3775 7.606,16.9842 16.9843,16.9842l17.3121 0c2.4979,0 4.5618,-2.0646 4.5618,-4.5622 0,-2.493 -2.0703,-4.5628 -4.5623,-4.5628l-17.3114 0.0003c-4.3393,0 -7.8597,-3.5197 -7.8597,-7.8597l0 -30.185c0,-4.3401 3.5199,-7.8597 7.8597,-7.8597l17.3119 0.0007c2.4979,0 4.5618,-2.0646 4.5618,-4.5625z"/>
    <path id="_504836536" class="fil1" d="M290.926 11.4708c-2.5027,0 -4.5629,2.0601 -4.5629,4.5628 0,2.5025 2.0604,4.5625 4.5629,4.5625 2.5021,0 4.562,-2.0604 4.562,-4.5625 0,-2.5021 -2.0597,-4.5628 -4.562,-4.5628zm0 18.5404c-2.5031,0 -4.5629,2.0596 -4.5629,4.5619l0 36.4893c0,2.5021 2.0606,4.5623 4.5629,4.5623 2.5015,0 4.562,-2.0608 4.562,-4.5623l0 -36.4893c0,-2.4983 -2.0635,-4.5619 -4.562,-4.5619z"/>
    <path id="_504836512" class="fil1" d="M334.102 75.6232c2.4927,0 4.563,-2.07 4.563,-4.5618l0.0012 -24.0686c0.0003,-9.3773 -7.606,-16.985 -16.9843,-16.9843l-14.3062 0.0013c-2.4851,0.0002 -4.5615,2.0744 -4.5615,4.5617l-0.0002 36.4899c0,2.5094 2.054,4.5618 4.5625,4.5618 2.4927,0 4.5625,-2.0691 4.5625,-4.5618l0 -31.9266 9.7427 -0.0015c4.3401,-0.0008 7.86,3.5196 7.8597,7.8597l-0.0014 24.0684c-0.0003,2.4979 2.0639,4.5618 4.562,4.5618z"/>
    <path id="_504836776" class="fil1" d="M244.208 46.9913c0,-9.3454 7.5572,-16.9825 16.8874,-16.983l1.1358 0.001c9.2964,0.0079 16.8058,7.6648 16.8058,16.982l0 11.6504c0,9.3177 -7.5096,16.9741 -16.8058,16.982l-1.1358 0.001c-9.3332,0.0078 -16.8874,-7.6376 -16.8874,-16.983l0 -11.6504zm25.7042 0.0003c0,-4.3345 -3.5115,-7.8595 -7.8426,-7.8595l-0.8957 0c-4.3308,0 -7.8411,3.526 -7.8411,7.8595l0 11.6498c0,4.333 3.5098,7.8595 7.8411,7.8595l0.8957 0c4.332,0 7.8426,-3.525 7.8426,-7.8595l0 -11.6498z"/>
   </g>
  </g>
 </g>
</svg>
